<?xml version="1.0" encoding="UTF-8"?>
<svg xmlns="http://www.w3.org/2000/svg" xmlns:xlink="http://www.w3.org/1999/xlink"
     width="1400" height="1050" viewBox="0 0 1400 1050">
<defs>
<marker markerWidth="10" markerHeight="10" viewBox="0 0 10 10" orient="auto" refX="9" refY="5" size="6" id="d0">
<path d="M 0 0 L 10 5 L 0 10 z" fill="#3b82f6" />
</marker>
<marker markerWidth="10" markerHeight="10" viewBox="0 0 10 10" orient="auto" refX="9" refY="5" size="6" id="d1">
<path d="M 0 0 L 10 5 L 0 10 z" fill="#10b981" />
</marker>
<marker markerWidth="10" markerHeight="10" viewBox="0 0 10 10" orient="auto" refX="9" refY="5" size="6" id="d2">
<path d="M 0 0 L 10 5 L 0 10 z" fill="#10b981" />
</marker>
<marker markerWidth="10" markerHeight="10" viewBox="0 0 10 10" orient="auto" refX="9" refY="5" size="6" id="d3">
<path d="M 0 0 L 10 5 L 0 10 z" fill="#10b981" />
</marker>
<marker markerWidth="10" markerHeight="10" viewBox="0 0 10 10" orient="auto" refX="9" refY="5" size="6" id="d4">
<path d="M 0 0 L 10 5 L 0 10 z" fill="#10b981" />
</marker>
<marker markerWidth="10" markerHeight="10" viewBox="0 0 10 10" orient="auto" refX="9" refY="5" size="6" id="d5">
<path d="M 0 0 L 10 5 L 0 10 z" fill="#f59e0b" />
</marker>
<marker markerWidth="10" markerHeight="10" viewBox="0 0 10 10" orient="auto" refX="9" refY="5" size="6" id="d6">
<path d="M 0 0 L 10 5 L 0 10 z" fill="#f59e0b" />
</marker>
<marker markerWidth="10" markerHeight="10" viewBox="0 0 10 10" orient="auto" refX="9" refY="5" size="6" id="d7">
<path d="M 0 0 L 10 5 L 0 10 z" fill="#f59e0b" />
</marker>
<marker markerWidth="10" markerHeight="10" viewBox="0 0 10 10" orient="auto" refX="9" refY="5" size="6" id="d8">
<path d="M 0 0 L 10 5 L 0 10 z" fill="#8b5cf6" />
</marker>
<marker markerWidth="10" markerHeight="10" viewBox="0 0 10 10" orient="auto" refX="9" refY="5" size="6" id="d9">
<path d="M 0 0 L 10 5 L 0 10 z" fill="#f59e0b" />
</marker>
<marker markerWidth="10" markerHeight="10" viewBox="0 0 10 10" orient="auto" refX="9" refY="5" size="6" id="d10">
<path d="M 0 0 L 10 5 L 0 10 z" fill="#ef4444" />
</marker>
</defs>
<rect x="0" y="0" width="1400" height="1050" fill="#0f172a" rx="12" />
<text x="700.0" y="38" font-size="26" fill="#f1f5f9" text-anchor="middle" font-weight="bold" font-family="system-ui, sans-serif">StudyAgent 系统架构图</text>
<text x="700.0" y="58" font-size="13" fill="#94a3b8" text-anchor="middle" font-family="system-ui, sans-serif">基于费曼学习法 · LangGraph 编排 · RAG 增强</text>
<text x="40" y="90" font-size="12" fill="#3b82f6" font-weight="700" font-family="system-ui, sans-serif">入口层  Entry Points</text>
<path d="M40,94 L184.5,94" stroke="#3b82f6" stroke-width="1.5" />
<rect x="40.0" y="100" width="230" height="52" fill="#1e3a5f" stroke="#3b82f6" stroke-width="1.5" rx="8" />
<text x="155.0" y="120.0" font-size="13" fill="#f1f5f9" text-anchor="middle" font-weight="600" font-family="system-ui, sans-serif">FastAPI Web</text>
<text x="155.0" y="134.0" font-size="10" fill="#94a3b8" text-anchor="middle" font-family="system-ui, sans-serif">uvicorn app.main:app</text>
<rect x="312.5" y="100" width="230" height="52" fill="#1e3a5f" stroke="#3b82f6" stroke-width="1.5" rx="8" />
<text x="427.5" y="120.0" font-size="13" fill="#f1f5f9" text-anchor="middle" font-weight="600" font-family="system-ui, sans-serif">CLI REPL</text>
<text x="427.5" y="134.0" font-size="10" fill="#94a3b8" text-anchor="middle" font-family="system-ui, sans-serif">python main.py</text>
<rect x="585.0" y="100" width="230" height="52" fill="#1e3a5f" stroke="#3b82f6" stroke-width="1.5" rx="8" />
<text x="700.0" y="120.0" font-size="13" fill="#f1f5f9" text-anchor="middle" font-weight="600" font-family="system-ui, sans-serif">Chainlit UI</text>
<text x="700.0" y="134.0" font-size="10" fill="#94a3b8" text-anchor="middle" font-family="system-ui, sans-serif">chainlit run ...</text>
<rect x="857.5" y="100" width="230" height="52" fill="#1e3a5f" stroke="#3b82f6" stroke-width="1.5" rx="8" />
<text x="972.5" y="120.0" font-size="13" fill="#f1f5f9" text-anchor="middle" font-weight="600" font-family="system-ui, sans-serif">Celery Worker</text>
<text x="972.5" y="134.0" font-size="10" fill="#94a3b8" text-anchor="middle" font-family="system-ui, sans-serif">celery -A ... worker</text>
<rect x="1130.0" y="100" width="230" height="52" fill="#1e3a5f" stroke="#3b82f6" stroke-width="1.5" rx="8" />
<text x="1245.0" y="120.0" font-size="13" fill="#f1f5f9" text-anchor="middle" font-weight="600" font-family="system-ui, sans-serif">SLO CLI</text>
<text x="1245.0" y="134.0" font-size="10" fill="#94a3b8" text-anchor="middle" font-family="system-ui, sans-serif">python -m slo</text>
<text x="40" y="178" font-size="12" fill="#3b82f6" font-weight="700" font-family="system-ui, sans-serif">API 路由层  FastAPI</text>
<path d="M40,182 L176.0,182" stroke="#3b82f6" stroke-width="1.5" />
<rect x="40.0" y="188" width="200" height="46" fill="#1e3a5f" stroke="#3b82f6" stroke-width="1.5" rx="8" />
<text x="140.0" y="211.0" font-size="13" fill="#f1f5f9" text-anchor="middle" font-weight="600" font-family="system-ui, sans-serif">/chat/stream</text>
<rect x="264.0" y="188" width="200" height="46" fill="#1e3a5f" stroke="#3b82f6" stroke-width="1.5" rx="8" />
<text x="364.0" y="211.0" font-size="13" fill="#f1f5f9" text-anchor="middle" font-weight="600" font-family="system-ui, sans-serif">/auth</text>
<rect x="488.0" y="188" width="200" height="46" fill="#1e3a5f" stroke="#3b82f6" stroke-width="1.5" rx="8" />
<text x="588.0" y="211.0" font-size="13" fill="#f1f5f9" text-anchor="middle" font-weight="600" font-family="system-ui, sans-serif">/knowledge</text>
<rect x="712.0" y="188" width="200" height="46" fill="#1e3a5f" stroke="#3b82f6" stroke-width="1.5" rx="8" />
<text x="812.0" y="211.0" font-size="13" fill="#f1f5f9" text-anchor="middle" font-weight="600" font-family="system-ui, sans-serif">/profile</text>
<rect x="936.0" y="188" width="200" height="46" fill="#1e3a5f" stroke="#3b82f6" stroke-width="1.5" rx="8" />
<text x="1036.0" y="211.0" font-size="13" fill="#f1f5f9" text-anchor="middle" font-weight="600" font-family="system-ui, sans-serif">/sessions</text>
<rect x="1160.0" y="188" width="200" height="46" fill="#1e3a5f" stroke="#3b82f6" stroke-width="1.5" rx="8" />
<text x="1260.0" y="211.0" font-size="13" fill="#f1f5f9" text-anchor="middle" font-weight="600" font-family="system-ui, sans-serif">/skills</text>
<path d="M700.0,234 L700.0,262" stroke="#3b82f6" stroke-width="2.5" marker-end="url(#d0)" />
<text x="706.0" y="258" font-size="11" fill="#94a3b8" text-anchor="start" font-style="italic" font-family="system-ui, sans-serif">agent_service</text>
<text x="260" y="272" font-size="12" fill="#10b981" font-weight="700" font-family="system-ui, sans-serif">LangGraph 编排核心 (17 节点)</text>
<path d="M260,276 L447.0,276" stroke="#10b981" stroke-width="1.5" />
<rect x="240" y="282" width="920" height="300" fill="#0d2818" stroke="#10b981" stroke-width="2" rx="10" />
<rect x="625.0" y="300" width="150" height="42" fill="#1a3d2e" stroke="#10b981" stroke-width="1.5" rx="20" />
<text x="700.0" y="315.0" font-size="13" fill="#f1f5f9" text-anchor="middle" font-weight="600" font-family="system-ui, sans-serif">intent_router</text>
<text x="700.0" y="329.0" font-size="10" fill="#94a3b8" text-anchor="middle" font-family="system-ui, sans-serif">意图路由</text>
<rect x="260.0" y="360" width="155" height="42" fill="#1a3d2e" stroke="#10b981" stroke-width="1.5" rx="6" />
<text x="337.5" y="375.0" font-size="13" fill="#f1f5f9" text-anchor="middle" font-weight="600" font-family="system-ui, sans-serif">diagnose</text>
<text x="337.5" y="389.0" font-size="10" fill="#94a3b8" text-anchor="middle" font-family="system-ui, sans-serif">诊断认知</text>
<rect x="441.25" y="360" width="155" height="42" fill="#1a3d2e" stroke="#10b981" stroke-width="1.5" rx="6" />
<text x="518.75" y="375.0" font-size="13" fill="#f1f5f9" text-anchor="middle" font-weight="600" font-family="system-ui, sans-serif">explain</text>
<text x="518.75" y="389.0" font-size="10" fill="#94a3b8" text-anchor="middle" font-family="system-ui, sans-serif">易懂讲解</text>
<rect x="622.5" y="360" width="155" height="42" fill="#1a3d2e" stroke="#10b981" stroke-width="1.5" rx="6" />
<text x="700.0" y="375.0" font-size="13" fill="#f1f5f9" text-anchor="middle" font-weight="600" font-family="system-ui, sans-serif">restate_check</text>
<text x="700.0" y="389.0" font-size="10" fill="#94a3b8" text-anchor="middle" font-family="system-ui, sans-serif">复述检查</text>
<rect x="803.75" y="360" width="155" height="42" fill="#1a3d2e" stroke="#10b981" stroke-width="1.5" rx="6" />
<text x="881.25" y="375.0" font-size="13" fill="#f1f5f9" text-anchor="middle" font-weight="600" font-family="system-ui, sans-serif">followup</text>
<text x="881.25" y="389.0" font-size="10" fill="#94a3b8" text-anchor="middle" font-family="system-ui, sans-serif">追问补救</text>
<rect x="985.0" y="360" width="155" height="42" fill="#1a3d2e" stroke="#10b981" stroke-width="1.5" rx="6" />
<text x="1062.5" y="375.0" font-size="13" fill="#f1f5f9" text-anchor="middle" font-weight="600" font-family="system-ui, sans-serif">summary</text>
<text x="1062.5" y="389.0" font-size="10" fill="#94a3b8" text-anchor="middle" font-family="system-ui, sans-serif">总结复习</text>
<path d="M415.0,381 L441.25,381" stroke="#10b981" stroke-width="1.5" stroke-dasharray="" marker-end="url(#d1)" />
<path d="M596.25,381 L622.5,381" stroke="#10b981" stroke-width="1.5" stroke-dasharray="" marker-end="url(#d2)" />
<path d="M777.5,381 L803.75,381" stroke="#10b981" stroke-width="1.5" stroke-dasharray="" marker-end="url(#d3)" />
<path d="M958.75,381 L985.0,381" stroke="#10b981" stroke-width="1.5" stroke-dasharray="" marker-end="url(#d4)" />
<rect x="260.0" y="420" width="130" height="42" fill="#2d1f0e" stroke="#f59e0b" stroke-width="1.5" rx="6" />
<text x="325.0" y="435.0" font-size="13" fill="#f1f5f9" text-anchor="middle" font-weight="600" font-family="system-ui, sans-serif">retrieval_planner</text>
<text x="325.0" y="449.0" font-size="10" fill="#94a3b8" text-anchor="middle" font-family="system-ui, sans-serif">检索规划</text>
<rect x="410.0" y="420" width="130" height="42" fill="#2d1f0e" stroke="#f59e0b" stroke-width="1.5" rx="6" />
<text x="475.0" y="435.0" font-size="13" fill="#f1f5f9" text-anchor="middle" font-weight="600" font-family="system-ui, sans-serif">evidence_gate</text>
<text x="475.0" y="449.0" font-size="10" fill="#94a3b8" text-anchor="middle" font-family="system-ui, sans-serif">证据门控</text>
<rect x="560.0" y="420" width="130" height="42" fill="#1a3d2e" stroke="#10b981" stroke-width="1.5" rx="6" />
<text x="625.0" y="435.0" font-size="13" fill="#f1f5f9" text-anchor="middle" font-weight="600" font-family="system-ui, sans-serif">answer_policy</text>
<text x="625.0" y="449.0" font-size="10" fill="#94a3b8" text-anchor="middle" font-family="system-ui, sans-serif">回答策略</text>
<rect x="710.0" y="420" width="130" height="42" fill="#2d1f0e" stroke="#f59e0b" stroke-width="1.5" rx="6" />
<text x="775.0" y="435.0" font-size="13" fill="#f1f5f9" text-anchor="middle" font-weight="600" font-family="system-ui, sans-serif">rag_first</text>
<text x="775.0" y="449.0" font-size="10" fill="#94a3b8" text-anchor="middle" font-family="system-ui, sans-serif">RAG优先</text>
<rect x="860.0" y="420" width="130" height="42" fill="#2d1f0e" stroke="#f59e0b" stroke-width="1.5" rx="6" />
<text x="925.0" y="435.0" font-size="13" fill="#f1f5f9" text-anchor="middle" font-weight="600" font-family="system-ui, sans-serif">rag_answer</text>
<text x="925.0" y="449.0" font-size="10" fill="#94a3b8" text-anchor="middle" font-family="system-ui, sans-serif">RAG回答</text>
<rect x="1010.0" y="420" width="130" height="42" fill="#1a3d2e" stroke="#10b981" stroke-width="1.5" rx="6" />
<text x="1075.0" y="435.0" font-size="13" fill="#f1f5f9" text-anchor="middle" font-weight="600" font-family="system-ui, sans-serif">llm_answer</text>
<text x="1075.0" y="449.0" font-size="10" fill="#94a3b8" text-anchor="middle" font-family="system-ui, sans-serif">LLM回答</text>
<rect x="535.0" y="478" width="140" height="38" fill="#3d1a1a" stroke="#ef4444" stroke-width="1.5" rx="6" />
<text x="605.0" y="491.0" font-size="13" fill="#f1f5f9" text-anchor="middle" font-weight="600" font-family="system-ui, sans-serif">history_check</text>
<text x="605.0" y="505.0" font-size="10" fill="#94a3b8" text-anchor="middle" font-family="system-ui, sans-serif">历史检查</text>
<rect x="725.0" y="478" width="140" height="38" fill="#3d1a1a" stroke="#ef4444" stroke-width="1.5" rx="6" />
<text x="795.0" y="491.0" font-size="13" fill="#f1f5f9" text-anchor="middle" font-weight="600" font-family="system-ui, sans-serif">recovery</text>
<text x="795.0" y="505.0" font-size="10" fill="#94a3b8" text-anchor="middle" font-family="system-ui, sans-serif">错误恢复</text>
<text x="1148" y="572" font-size="10" fill="#94a3b8" text-anchor="end" font-family="system-ui, sans-serif">SQLite Checkpoint · 会话级持久化</text>
<text x="40" y="608" font-size="12" fill="#8b5cf6" font-weight="700" font-family="system-ui, sans-serif">服务层 Services</text>
<path d="M40,612 L142.0,612" stroke="#8b5cf6" stroke-width="1.5" />
<rect x="40" y="618" width="230" height="44" fill="#2a1f47" stroke="#8b5cf6" stroke-width="1.5" rx="8" />
<text x="155.0" y="634.0" font-size="13" fill="#f1f5f9" text-anchor="middle" font-weight="600" font-family="system-ui, sans-serif">llm_service</text>
<text x="155.0" y="648.0" font-size="10" fill="#94a3b8" text-anchor="middle" font-family="system-ui, sans-serif">LLM 调用 (OpenAI)</text>
<rect x="40" y="668" width="230" height="44" fill="#2a1f47" stroke="#8b5cf6" stroke-width="1.5" rx="8" />
<text x="155.0" y="684.0" font-size="13" fill="#f1f5f9" text-anchor="middle" font-weight="600" font-family="system-ui, sans-serif">tool_executor</text>
<text x="155.0" y="698.0" font-size="10" fill="#94a3b8" text-anchor="middle" font-family="system-ui, sans-serif">工具执行器</text>
<rect x="40" y="718" width="230" height="44" fill="#2a1f47" stroke="#8b5cf6" stroke-width="1.5" rx="8" />
<text x="155.0" y="734.0" font-size="13" fill="#f1f5f9" text-anchor="middle" font-weight="600" font-family="system-ui, sans-serif">stage_orchestrator</text>
<text x="155.0" y="748.0" font-size="10" fill="#94a3b8" text-anchor="middle" font-family="system-ui, sans-serif">阶段编排器</text>
<rect x="40" y="768" width="230" height="44" fill="#2a1f47" stroke="#8b5cf6" stroke-width="1.5" rx="8" />
<text x="155.0" y="784.0" font-size="13" fill="#f1f5f9" text-anchor="middle" font-weight="600" font-family="system-ui, sans-serif">context_builder</text>
<text x="155.0" y="798.0" font-size="10" fill="#94a3b8" text-anchor="middle" font-family="system-ui, sans-serif">上下文构建</text>
<rect x="40" y="818" width="230" height="44" fill="#2a1f47" stroke="#8b5cf6" stroke-width="1.5" rx="8" />
<text x="155.0" y="834.0" font-size="13" fill="#f1f5f9" text-anchor="middle" font-weight="600" font-family="system-ui, sans-serif">persistence_coordinator</text>
<text x="155.0" y="848.0" font-size="10" fill="#94a3b8" text-anchor="middle" font-family="system-ui, sans-serif">持久化协调</text>
<rect x="40" y="868" width="230" height="44" fill="#2a1f47" stroke="#8b5cf6" stroke-width="1.5" rx="8" />
<text x="155.0" y="884.0" font-size="13" fill="#f1f5f9" text-anchor="middle" font-weight="600" font-family="system-ui, sans-serif">session/user_store</text>
<text x="155.0" y="898.0" font-size="10" fill="#94a3b8" text-anchor="middle" font-family="system-ui, sans-serif">会话 &amp; 用户存储</text>
<text x="300" y="608" font-size="12" fill="#f59e0b" font-weight="700" font-family="system-ui, sans-serif">RAG 管道</text>
<path d="M300,612 L351.0,612" stroke="#f59e0b" stroke-width="1.5" />
<rect x="300.0" y="618" width="180.0" height="48" fill="#2d1f0e" stroke="#f59e0b" stroke-width="1.5" rx="8" />
<text x="390.0" y="636.0" font-size="13" fill="#f1f5f9" text-anchor="middle" font-weight="600" font-family="system-ui, sans-serif">文档解析</text>
<text x="390.0" y="650.0" font-size="10" fill="#94a3b8" text-anchor="middle" font-family="system-ui, sans-serif">pypdf/docx/OCR</text>
<path d="M480.0,642 L500.0,642" stroke="#f59e0b" stroke-width="1.5" stroke-dasharray="" marker-end="url(#d5)" />
<rect x="500.0" y="618" width="180.0" height="48" fill="#2d1f0e" stroke="#f59e0b" stroke-width="1.5" rx="8" />
<text x="590.0" y="636.0" font-size="13" fill="#f1f5f9" text-anchor="middle" font-weight="600" font-family="system-ui, sans-serif">文本分块</text>
<text x="590.0" y="650.0" font-size="10" fill="#94a3b8" text-anchor="middle" font-family="system-ui, sans-serif">chunk+embedding</text>
<path d="M680.0,642 L700.0,642" stroke="#f59e0b" stroke-width="1.5" stroke-dasharray="" marker-end="url(#d6)" />
<rect x="700.0" y="618" width="180.0" height="48" fill="#2d1f0e" stroke="#f59e0b" stroke-width="1.5" rx="8" />
<text x="790.0" y="636.0" font-size="13" fill="#f1f5f9" text-anchor="middle" font-weight="600" font-family="system-ui, sans-serif">多路召回</text>
<text x="790.0" y="650.0" font-size="10" fill="#94a3b8" text-anchor="middle" font-family="system-ui, sans-serif">BM25+Dense+RRF</text>
<path d="M880.0,642 L900.0,642" stroke="#f59e0b" stroke-width="1.5" stroke-dasharray="" marker-end="url(#d7)" />
<rect x="900.0" y="618" width="180.0" height="48" fill="#2d1f0e" stroke="#f59e0b" stroke-width="1.5" rx="8" />
<text x="990.0" y="636.0" font-size="13" fill="#f1f5f9" text-anchor="middle" font-weight="600" font-family="system-ui, sans-serif">重排序</text>
<text x="990.0" y="650.0" font-size="10" fill="#94a3b8" text-anchor="middle" font-family="system-ui, sans-serif">rerank+gate</text>
<rect x="300.0" y="680" width="253.33333333333334" height="36" fill="#1e293b" stroke="#f59e0b" stroke-width="1.5" rx="18" />
<text x="426.6666666666667" y="698.0" font-size="11" fill="#f1f5f9" text-anchor="middle" font-weight="600" font-family="system-ui, sans-serif">search_local_textbook</text>
<rect x="563.3333333333334" y="680" width="253.33333333333334" height="36" fill="#1e293b" stroke="#f59e0b" stroke-width="1.5" rx="18" />
<text x="690.0" y="698.0" font-size="11" fill="#f1f5f9" text-anchor="middle" font-weight="600" font-family="system-ui, sans-serif">search_personal_memory</text>
<rect x="826.6666666666667" y="680" width="253.33333333333334" height="36" fill="#1e293b" stroke="#06b6d4" stroke-width="1.5" rx="18" />
<text x="953.3333333333334" y="698.0" font-size="11" fill="#f1f5f9" text-anchor="middle" font-weight="600" font-family="system-ui, sans-serif">search_web</text>
<text x="300" y="726" font-size="12" fill="#8b5cf6" font-weight="700" font-family="system-ui, sans-serif">技能系统 Skills</text>
<path d="M300,730 L393.5,730" stroke="#8b5cf6" stroke-width="1.5" />
<rect x="300" y="736" width="220" height="40" fill="#2a1f47" stroke="#8b5cf6" stroke-width="1.5" rx="8" />
<text x="410.0" y="750.0" font-size="13" fill="#f1f5f9" text-anchor="middle" font-weight="600" font-family="system-ui, sans-serif">BaseSkill + Registry</text>
<text x="410.0" y="764.0" font-size="10" fill="#94a3b8" text-anchor="middle" font-family="system-ui, sans-serif">可扩展工具技能框架</text>
<rect x="540" y="736" width="220" height="40" fill="#2a1f47" stroke="#8b5cf6" stroke-width="1.5" rx="8" />
<text x="650.0" y="750.0" font-size="13" fill="#f1f5f9" text-anchor="middle" font-weight="600" font-family="system-ui, sans-serif">Builtin Skills</text>
<text x="650.0" y="764.0" font-size="10" fill="#94a3b8" text-anchor="middle" font-family="system-ui, sans-serif">内置技能实现</text>
<text x="1110" y="608" font-size="12" fill="#ef4444" font-weight="700" font-family="system-ui, sans-serif">基础设施</text>
<path d="M1110,612 L1144.0,612" stroke="#ef4444" stroke-width="1.5" />
<rect x="1110" y="618" width="250" height="46" fill="#3d1a1a" stroke="#ef4444" stroke-width="1.5" rx="8" />
<text x="1235.0" y="635.0" font-size="13" fill="#f1f5f9" text-anchor="middle" font-weight="600" font-family="system-ui, sans-serif">Redis</text>
<text x="1235.0" y="649.0" font-size="10" fill="#94a3b8" text-anchor="middle" font-family="system-ui, sans-serif">PubSub + 任务队列</text>
<rect x="1110" y="672" width="250" height="46" fill="#3d1a1a" stroke="#ef4444" stroke-width="1.5" rx="8" />
<text x="1235.0" y="689.0" font-size="13" fill="#f1f5f9" text-anchor="middle" font-weight="600" font-family="system-ui, sans-serif">Celery</text>
<text x="1235.0" y="703.0" font-size="10" fill="#94a3b8" text-anchor="middle" font-family="system-ui, sans-serif">异步任务执行</text>
<rect x="1110" y="726" width="250" height="46" fill="#3d1a1a" stroke="#ef4444" stroke-width="1.5" rx="8" />
<text x="1235.0" y="743.0" font-size="13" fill="#f1f5f9" text-anchor="middle" font-weight="600" font-family="system-ui, sans-serif">Langfuse</text>
<text x="1235.0" y="757.0" font-size="10" fill="#94a3b8" text-anchor="middle" font-family="system-ui, sans-serif">可观测 &amp; 追踪</text>
<rect x="1110" y="780" width="250" height="46" fill="#3d1a1a" stroke="#ef4444" stroke-width="1.5" rx="8" />
<text x="1235.0" y="797.0" font-size="13" fill="#f1f5f9" text-anchor="middle" font-weight="600" font-family="system-ui, sans-serif">SQLite</text>
<text x="1235.0" y="811.0" font-size="10" fill="#94a3b8" text-anchor="middle" font-family="system-ui, sans-serif">Checkpoint 存储</text>
<text x="1110" y="850" font-size="12" fill="#06b6d4" font-weight="700" font-family="system-ui, sans-serif">配置开关</text>
<path d="M1110,854 L1144.0,854" stroke="#06b6d4" stroke-width="1.5" />
<rect x="1110" y="860" width="122" height="26" fill="#0c2d3e" stroke="#06b6d4" stroke-width="1.5" rx="13" />
<text x="1171.0" y="873.0" font-size="9" fill="#f1f5f9" text-anchor="middle" font-weight="600" font-family="system-ui, sans-serif">use_graph_v2</text>
<rect x="1238" y="860" width="122" height="26" fill="#0c2d3e" stroke="#06b6d4" stroke-width="1.5" rx="13" />
<text x="1299.0" y="873.0" font-size="9" fill="#f1f5f9" text-anchor="middle" font-weight="600" font-family="system-ui, sans-serif">async_graph_enabled</text>
<rect x="1110" y="892" width="122" height="26" fill="#0c2d3e" stroke="#06b6d4" stroke-width="1.5" rx="13" />
<text x="1171.0" y="905.0" font-size="9" fill="#f1f5f9" text-anchor="middle" font-weight="600" font-family="system-ui, sans-serif">rag_enabled</text>
<rect x="1238" y="892" width="122" height="26" fill="#0c2d3e" stroke="#06b6d4" stroke-width="1.5" rx="13" />
<text x="1299.0" y="905.0" font-size="9" fill="#f1f5f9" text-anchor="middle" font-weight="600" font-family="system-ui, sans-serif">langfuse_enabled</text>
<path d="M290,582 L300.0,618" stroke="#8b5cf6" stroke-width="1.5" stroke-dasharray="" marker-end="url(#d8)" />
<path d="M700.0,582 L690.0,618" stroke="#f59e0b" stroke-width="1.5" stroke-dasharray="" marker-end="url(#d9)" />
<path d="M1110,582 L1235,618" stroke="#ef4444" stroke-width="1.5" stroke-dasharray="4,3" marker-end="url(#d10)" />
<rect x="40" y="1020" width="14" height="14" fill="#3b82f6" rx="3" />
<text x="60" y="1031" font-size="11" fill="#94a3b8" font-family="system-ui, sans-serif">入口 / API</text>
<rect x="190" y="1020" width="14" height="14" fill="#10b981" rx="3" />
<text x="210" y="1031" font-size="11" fill="#94a3b8" font-family="system-ui, sans-serif">LangGraph 编排</text>
<rect x="340" y="1020" width="14" height="14" fill="#f59e0b" rx="3" />
<text x="360" y="1031" font-size="11" fill="#94a3b8" font-family="system-ui, sans-serif">RAG 管道</text>
<rect x="490" y="1020" width="14" height="14" fill="#8b5cf6" rx="3" />
<text x="510" y="1031" font-size="11" fill="#94a3b8" font-family="system-ui, sans-serif">服务 / 技能</text>
<rect x="640" y="1020" width="14" height="14" fill="#ef4444" rx="3" />
<text x="660" y="1031" font-size="11" fill="#94a3b8" font-family="system-ui, sans-serif">基础设施</text>
<rect x="790" y="1020" width="14" height="14" fill="#06b6d4" rx="3" />
<text x="810" y="1031" font-size="11" fill="#94a3b8" font-family="system-ui, sans-serif">配置开关</text>
<text x="1380" y="1038" font-size="10" fill="#334155" text-anchor="end" font-family="system-ui, sans-serif">StudyAgent v0.1.0 · Generated 2026-05-07</text>
</svg>